<svg width="600" height="400" viewBox="0 0 600 400" fill="none" xmlns="http://www.w3.org/2000/svg">
  <!-- Background gradients -->
  <rect width="600" height="400" rx="20" fill="#f8fbff"/>
  <path d="M0 40C0 17.9086 17.9086 0 40 0H560C582.091 0 600 17.9086 600 40V360C600 382.091 582.091 400 560 400H40C17.9086 400 0 382.091 0 360V40Z" fill="url(#paint0_linear)"/>

  <!-- Main elements -->
  <g transform="translate(100, 80)">
    <!-- Career path illustration -->
    <path d="M30,120 C50,70 150,180 200,100 C250,20 300,150 350,80 C400,10 400,200 400,200" stroke="#68b0e3" stroke-width="8" stroke-linecap="round" stroke-linejoin="round" stroke-dasharray="1, 20" fill="none"/>
    
    <!-- Guide character -->
    <g transform="translate(30, 80)">
      <!-- Character body -->
      <circle cx="0" cy="0" r="30" fill="#183550"/>
      <!-- Character head -->
      <circle cx="0" cy="-45" r="20" fill="#183550"/>
      <!-- Arms -->
      <path d="M0,-15 L35,5 M0,-15 L-20,15" stroke="#183550" stroke-width="8" stroke-linecap="round"/>
      <!-- Pointing hand -->
      <circle cx="35" cy="5" r="6" fill="#183550"/>
    </g>
    
    <!-- Student character -->
    <g transform="translate(120, 100)">
      <!-- Character body -->
      <circle cx="0" cy="0" r="25" fill="#68b0e3"/>
      <!-- Character head -->
      <circle cx="0" cy="-35" r="15" fill="#68b0e3"/>
      <!-- Arms -->
      <path d="M0,-10 L25,10 M0,-10 L-20,10" stroke="#68b0e3" stroke-width="6" stroke-linecap="round"/>
    </g>
    
    <!-- Milestone flags on the path -->
    <g transform="translate(200, 100)">
      <rect x="-10" y="-30" width="20" height="30" fill="#183550"/>
      <polygon points="10,0 10,-30 30,-15" fill="#183550"/>
    </g>
    
    <g transform="translate(350, 80)">
      <rect x="-10" y="-30" width="20" height="30" fill="#68b0e3"/>
      <polygon points="10,0 10,-30 30,-15" fill="#68b0e3"/>
    </g>
    
    <!-- Career options icons -->
    <g transform="translate(200, 40)">
      <!-- Technology icon -->
      <circle cx="0" cy="0" r="20" fill="#f0f8ff" stroke="#183550" stroke-width="2"/>
      <path d="M-10,-5 L10,-5 L10,10 L-10,10 Z M-6,-10 L6,-10 L6,-5 L-6,-5 Z M-2,10 L2,10 L2,15 L-2,15 Z" fill="#183550"/>
    </g>
    
    <g transform="translate(300, 130)">
      <!-- Healthcare icon -->
      <circle cx="0" cy="0" r="20" fill="#f0f8ff" stroke="#68b0e3" stroke-width="2"/>
      <path d="M-10,0 L10,0 M0,-10 L0,10" stroke="#68b0e3" stroke-width="4" stroke-linecap="round"/>
    </g>
    
    <g transform="translate(350, 40)">
      <!-- Education icon -->
      <circle cx="0" cy="0" r="20" fill="#f0f8ff" stroke="#183550" stroke-width="2"/>
      <path d="M-12,5 L0,-5 L12,5 L12,10 L-12,10 Z M-2,10 L2,10 L2,15 L-2,15 Z" fill="#183550"/>
    </g>
  </g>
  
  <!-- Decorative elements -->
  <circle cx="50" cy="50" r="20" fill="#e3f2fd"/>
  <circle cx="550" cy="350" r="25" fill="#e3f2fd"/>
  <circle cx="500" cy="80" r="15" fill="#183550" opacity="0.1"/>
  <circle cx="80" cy="320" r="10" fill="#183550" opacity="0.1"/>
  
  <!-- Gradient definitions -->
  <defs>
    <linearGradient id="paint0_linear" x1="0" y1="0" x2="600" y2="400" gradientUnits="userSpaceOnUse">
      <stop offset="0" stop-color="#ffffff"/>
      <stop offset="1" stop-color="#e3f2fd"/>
    </linearGradient>
  </defs>
</svg> 